<?xml version="1.0" encoding="utf-8"?>
<!-- Generated by IcoMoon.io -->
<!DOCTYPE svg PUBLIC "-//W3C//DTD SVG 1.1//EN" "http://www.w3.org/Graphics/SVG/1.1/DTD/svg11.dtd">
<svg version="1.1" xmlns="http://www.w3.org/2000/svg" xmlns:xlink="http://www.w3.org/1999/xlink" width="224" height="32" viewBox="0 0 224 32">
<g transform="translate(0 0)">
	<path d="M26.24 11.264c-0.064-0.128-0.128-0.192-0.256-0.192s-0.192 0-0.256 0.128l-9.728 10.816-5.888-5.888 2.56-2.56 3.136 3.136c0.064 0.064 0.128 0.128 0.256 0.064 0.064 0 0.192-0.064 0.256-0.128l7.488-8.512c0.128-0.128 0.128-0.32 0-0.448-2.112-1.984-4.8-3.072-7.68-3.072-6.336 0.128-11.328 5.184-11.328 11.392 0 6.208 5.056 11.264 11.264 11.264 6.208 0 11.264-5.056 11.264-11.264-0.064-1.6-0.384-3.2-1.088-4.736z" fill="#000000" />
	<path d="M16 0c-8.832 0-16 7.168-16 16s7.168 16 16 16 16-7.168 16-16-7.168-16-16-16zM16 29.248c-7.232 0-13.184-5.952-13.184-13.248s5.952-13.184 13.184-13.184 13.248 5.952 13.248 13.184-5.952 13.248-13.248 13.248z" fill="#000000" />
</g>
<g transform="translate(48 0)">
	<path d="M18.176 10.368c1.792 0 3.2 1.408 3.2 3.2s-1.408 3.2-3.2 3.2c-1.792 0-3.2-1.408-3.2-3.2 0-1.792 1.408-3.2 3.2-3.2z" fill="#000000" />
	<path d="M31.744 13.696l-5.12-5.12c-0.064-0.064-0.128-0.064-0.192-0.064s-0.128 0-0.192 0.064l-3.008 3.008c-0.064 0.064-0.128 0.192-0.064 0.256 0.192 0.512 0.256 1.088 0.256 1.664 0 1.408-0.576 2.752-1.536 3.712-1.024 1.024-2.304 1.536-3.712 1.536-1.408 0-2.752-0.576-3.712-1.536-1.024-1.024-1.536-2.304-1.536-3.712 0-1.408 0.576-2.752 1.536-3.712 1.024-1.024 2.304-1.536 3.712-1.536 0.64 0 1.216 0.128 1.792 0.32 0.128 0.064 0.192 0 0.32-0.064l2.944-2.944c0.064-0.064 0.064-0.128 0.064-0.192s0-0.128-0.064-0.192l-5.12-5.12c-0.128-0.128-0.256-0.128-0.384 0l-13.44 13.44c-0.128 0.128-0.128 0.256 0 0.384l4.16 4.16-8.32 8.32c-0.128 0.128-0.128 0.256 0 0.384l5.12 5.12c0 0.128 0.064 0.128 0.128 0.128s0.128 0 0.192-0.064l8.32-8.32 3.968 3.968c0.128 0.128 0.256 0.128 0.384 0l13.44-13.44c0.064-0.064 0.064-0.128 0.064-0.192s0.064-0.192 0-0.256z" fill="#000000" />
</g>
<g transform="translate(96 0)">
	<path d="M9.984 13.76c-3.712 0-6.784 3.008-6.784 6.784s3.072 6.784 6.784 6.784 6.784-3.072 6.784-6.784c0-3.776-3.008-6.784-6.784-6.784z" fill="#000000" />
</g>
<g transform="translate(144 0)">
	<path d="M17.792 9.6c1.024 0.32 1.984 0.896 2.88 1.792 0.896 0.896 1.472 1.792 1.792 2.752 0.064 0.128 0.192 0.192 0.32 0.192h9.024c0.064 0 0.192-0.064 0.256-0.128-0.064 0-0.064-0.064-0.064-0.128-0.448-3.456-2.112-6.72-4.672-9.28-2.688-2.688-5.888-4.352-9.408-4.736-0.064 0-0.192 0-0.256 0.064-0.064 0.064-0.128 0.128-0.128 0.256v9.024c0 0.064 0.128 0.192 0.256 0.192z" fill="#000000" />
	<path d="M32 17.664c-0.064-0.064-0.128-0.128-0.256-0.128h-8.96c-0.128 0-0.256 0.064-0.32 0.192-0.128 0.384-0.32 1.024-0.704 1.664-0.064 0.128-0.064 0.256 0.064 0.384l6.336 6.336c0.064 0.064 0.128 0.064 0.192 0.064 0 0 0 0 0 0 0.064 0 0.192-0.064 0.192-0.128 1.856-2.304 3.072-5.248 3.392-8.192 0.128-0.064 0.128-0.128 0.064-0.192z" fill="#000000" />
	<path d="M19.52 21.824c-0.064-0.064-0.256-0.128-0.384-0.064-0.96 0.448-1.984 0.704-3.008 0.704-1.728 0-3.392-0.704-4.672-1.92-2.624-2.624-2.688-6.784-0.128-9.344 0.768-0.768 1.792-1.408 2.88-1.728 0.128-0.064 0.192-0.128 0.192-0.32v-8.96c0-0.064 0-0.192-0.064-0.256-0.064 0.064-0.192 0.064-0.256 0.064-3.456 0.384-6.912 2.112-9.408 4.608-3.008 3.008-4.672 7.040-4.672 11.328 0 4.288 1.728 8.32 4.736 11.328 3.008 3.008 7.040 4.672 11.328 4.672 0 0 0 0 0 0 3.52 0 6.976-1.152 9.728-3.264 0.064-0.064 0.128-0.128 0.128-0.192 0-0.064 0-0.192-0.064-0.256l-6.336-6.4z" fill="#000000" />
</g>
<g transform="translate(192 0)">
	<path d="M16.128 0c-5.952 0-10.752 4.8-10.752 10.752s10.752 21.184 10.752 21.184 10.752-15.232 10.752-21.184-4.8-10.752-10.752-10.752zM16 17.664c-3.904 0-7.040-3.136-7.040-7.040s3.136-7.040 7.040-7.040 7.040 3.136 7.040 7.040-3.136 7.040-7.040 7.040z" fill="#000000" />
	<path d="M16 6.208c-2.432 0-4.352 1.984-4.352 4.352s1.984 4.352 4.352 4.352 4.352-1.984 4.352-4.352c0.064-2.432-1.92-4.352-4.352-4.352z" fill="#000000" />
</g>
</svg>
