<svg xmlns="http://www.w3.org/2000/svg" xmlns:xlink="http://www.w3.org/1999/xlink" version="1.1" id="Layer_1" x="0px" y="0px" viewBox="0 0 50 40" enable-background="new 0 0 50 40" xml:space="preserve"><style>.style0{fill:	#C1D731;}</style><path d="M50 35c0 2.7-2.2 5-5 5H5c-2.7 0-5-2.2-5-5l0 0c0-2.7 2.2-5 5-5h40C47.8 30 50 32.3 50 35L50 35z" class="style0"/><path d="M50 20c0 2.7-2.2 5-5 5H5c-2.7 0-5-2.2-5-5l0 0c0-2.7 2.2-5 5-5h40C47.8 15 50 17.3 50 20L50 20z" class="style0"/><path d="M50 5c0 2.7-2.2 5-5 5H5c-2.7 0-5-2.2-5-5l0 0c0-2.7 2.2-5 5-5h40C47.8 0 50 2.3 50 5L50 5z" class="style0"/></svg>