<svg xmlns="http://www.w3.org/2000/svg" xmlns:xlink="http://www.w3.org/1999/xlink" version="1.1" id="Layer_1" x="0px" y="0px" viewBox="0 0 50 50" enable-background="new 0 0 50 50" xml:space="preserve"><style>.style0{fill:	#333333;}.style1{fill:	none;}</style><symbol id="arrow" viewBox="-120 -159.5 240 319"><path d="M120 15.7c0 1.7-0.6 3.3-1.7 4.7L5.8 157.3c-1.4 1.7-3.6 2.2-5.8 2.2c0 0 0 0 0 0c-2.2 0-4.4-0.5-5.8-2.2 L-118.3 20.6c-1.1-1.3-1.7-2.9-1.7-4.6V-7.5c0-4.1 3.4-8 7.5-8H-53v-136c0-4.1 3.4-8 7.5-8h91c4.1 0 7.5 3.9 7.5 8v136h59.5 c2 0 3.9 1 5.3 2.4c1.4 1.4 2.2 3.4 2.2 5.4L120 15.7z" class="style0"/><polygon display="none" points="-120,159.5 120,159.5 120,-159.5 -120,-159.5" class="style1"/></symbol><path d="M15.6 21.5C9.8 21.5 5 26.3 5 32.2s4.8 10.6 10.6 10.6S26.3 38 26.3 32.2C26.3 26.3 21.5 21.5 15.6 21.5z" class="style0"/><use xlink:href="#arrow" width="240" height="319" x="-120" y="-159.5" transform="matrix(5.130523e-02 0 0 -5.130523e-02 15.8477 8.1832)" overflow="visible"/><use xlink:href="#arrow" width="240" height="319" x="-120" y="-159.5" transform="matrix(2.565262e-02 4.441348e-02 4.441348e-02 -2.565262e-02 36.6085 20.1694)" overflow="visible"/><use xlink:href="#arrow" width="240" height="319" x="-120" y="-159.5" transform="matrix(-2.565262e-02 4.441348e-02 4.441348e-02 2.565262e-02 36.6085 44.1428)" overflow="visible"/></svg>