<svg xmlns="http://www.w3.org/2000/svg" xmlns:xlink="http://www.w3.org/1999/xlink" version="1.1" id="Layer_1" x="0px" y="0px" viewBox="0 0 150 55" enable-background="new 0 0 150 55" xml:space="preserve"><style>.style0{fill:	#C1D82F;}.style1{fill:	#A6A699;}.style2{fill:	#F89728;}.style3{fill:	none;}.style4{fill:	#FEDAC0;}</style><g><rect x="105.8" y="41.1" width="2.5" height="8.5" class="style0"/><path d="M114.4 40.8c-1.3 0-2.1 0.6-2.7 1.2v-0.9h-2.4v10.5h2.5v-2v-0.8c0.3 0.3 1 1.1 2.6 1.1c2.4 0 4.1-2 4.1-4.4 C118.6 43.4 117.4 40.8 114.4 40.8 M116 45.3c0 1.1-0.8 2.2-2.1 2.2c-0.6 0-1.1-0.2-1.5-0.6c-0.4-0.4-0.6-0.9-0.6-1.5 c0-0.6 0.2-1.2 0.6-1.5c0.4-0.4 0.9-0.6 1.5-0.6C115.3 43.2 116 44.3 116 45.3L116 45.3z" class="style0"/><path d="M123.9 40.8c-0.9 0-1.8 0.3-2.2 1.1v-1.1v-2.5h-2.5v11.3h2.5v-4.7c0-0.2 0-0.6 0.2-1 c0.2-0.4 0.5-0.7 1.2-0.7c0.6 0 0.9 0.2 1.1 0.5c0.2 0.3 0.3 0.8 0.3 1.2v4.6h2.5v-4.7c0-1.1-0.1-2.1-0.6-2.8 C126 41.3 125.2 40.8 123.9 40.8" class="style0"/><path d="M132 40.8c-2.6 0-4.4 2.2-4.4 4.6c0 2.5 2.1 4.5 4.5 4.5c0.9 0 1.7-0.3 2.4-0.8c0.7-0.5 1.3-1.2 1.7-2.2 h-2.6c-0.3 0.4-0.7 0.8-1.5 0.8c-1 0-1.8-0.6-2-1.5h6.3c0.2-1.6-0.1-2.9-1.2-4.1C134.4 41.3 133.3 40.8 132 40.8 M130.1 44.3 c0.1-0.4 0.6-1.3 1.9-1.3c1.3 0 1.8 1 1.9 1.3H130.1z" class="style0"/><path d="M139.5 42v-0.9h-2.4v8.5h2.5V45c0-1.2 0.6-1.7 1.9-1.7h0.1v-2.5C140.2 40.8 139.8 41.6 139.5 42" class="style0"/><path d="M107 35.8c-1.1 0-2 0.9-2 2c0 1.1 0.9 2 2 2c1.1 0 2-0.9 2-2C109 36.7 108.1 35.8 107 35.8 M107 39.3 c-0.8 0-1.5-0.7-1.5-1.5c0-0.8 0.7-1.5 1.5-1.5c0.8 0 1.5 0.7 1.5 1.5C108.5 38.6 107.8 39.3 107 39.3" class="style0"/><path d="M107 36.7c-0.6 0-1.1 0.5-1.1 1.1c0 0.6 0.5 1.1 1.1 1.1c0.6 0 1.1-0.5 1.1-1.1 C108 37.2 107.6 36.7 107 36.7" class="style1"/><path d="M102.6 46.3c-0.3 0.5-0.8 1.1-1.8 1.1c-1.2 0-2-0.9-2-2.1c0-0.6 0.2-1.2 0.5-1.6c0.4-0.4 0.9-0.6 1.5-0.6 c1.1 0 1.6 0.6 1.8 1.2h2.6c-0.4-2.1-2.2-3.6-4.5-3.6c-1.5 0-2.7 0.7-3.5 1.7v0c-0.6 0.8-1 1.8-1 2.8c0 1.3 0.5 2.4 1.4 3.2l0 0 c0.8 0.8 1.9 1.3 3.2 1.3c2.3 0 4-1.6 4.4-3.5H102.6z" class="style0"/><path d="M86.4 49.6V38.3h-2.5v3.5c-0.3-0.3-1-1-2.5-1c-2.2 0-4.2 1.6-4.2 4.5c0 2.5 1.7 4.5 4.2 4.5 c1.7 0 2.3-0.8 2.6-1.2v0.9H86.4z M83.4 46.8c-0.4 0.4-1 0.6-1.6 0.6c-1.2 0-2.1-0.9-2.1-2.2v0c0-1 0.7-2.1 2.2-2.1 c0.6 0 1.1 0.2 1.5 0.6c0.4 0.4 0.6 0.9 0.6 1.5C84 45.9 83.8 46.4 83.4 46.8" class="style0"/><path d="M94.5 42.1c-0.8-0.8-1.9-1.3-3.2-1.3c-1.5 0-2.7 0.7-3.5 1.8l0 0c-0.6 0.8-0.9 1.7-0.9 2.8 c0 1.3 0.5 2.4 1.4 3.2l0 0c0 0 0.1 0.1 0.1 0.1l0 0c0.8 0.7 1.9 1.2 3 1.2c0.9 0 1.7-0.3 2.4-0.8c0.7-0.5 1.3-1.2 1.7-2.2h-2.6 c-0.3 0.4-0.7 0.8-1.5 0.8c-1 0-1.8-0.6-2-1.5h6.3C95.9 44.6 95.6 43.3 94.5 42.1 M89.4 44.3c0.1-0.4 0.6-1.3 1.9-1.3 c1.3 0 1.8 0.9 1.9 1.3H89.4z" class="style0"/><g><path d="M58.3 49.5v-10h1.4V43h0c0.6-0.9 1.6-1.2 2.6-1.2c2 0 3.9 1.6 3.9 4c0 2.2-1.7 3.9-3.9 3.9 c-0.7 0-1.8-0.2-2.6-1.3h0v1.1H58.3z M62.3 48.4c1.4 0 2.6-1.2 2.6-2.7c0-1.4-1.1-2.7-2.6-2.7c-1.5 0-2.6 1.3-2.6 2.6 C59.7 47.4 61 48.4 62.3 48.4z" class="style0"/><path d="M69.9 52h-1.5l1.1-2.7l-3-7.4h1.5l2.2 5.8l2.3-5.8h1.5L69.9 52z" class="style0"/></g><g><path d="M0 3h5.4v9.6c1.9-1.9 4.5-2.8 7-2.8c6.9 0 11.4 6 11.4 12c0 4.5-3 12.1-11.2 12.1c-4.4 0-6.3-2-7.6-3.5 v2.7H0V3z M11.9 28.9c3.5 0 6.5-2.7 6.5-7.1c0-4.4-3.2-7-6.6-7c-4.2 0-6.7 3.5-6.7 6.8C5.1 26.5 8.7 28.9 11.9 28.9z" class="style2"/></g><g><path d="M30.1 24.3c0.2 1.5 2.4 4.6 6.2 4.6c2.4 0 4.2-1 5.2-2.9h5.7c-1.3 4.1-5.6 7.9-10.9 7.9 c-6.9 0-11.9-5.4-11.9-12c0-6.4 4.7-12.1 11.9-12.1c7.4 0 11.7 6.1 11.7 11.8c0 1.1-0.2 2-0.3 2.7H30.1z M42.5 19.9 c-0.6-3.6-3.2-5.2-6.1-5.2c-2.2 0-5.4 1-6.4 5.2H42.5z" class="style2"/></g><g><path d="M72.5 33.1h-5v-2.8c-1.7 2-5 3.5-7.9 3.5c-5.8 0-11-4.6-11-12.2c0-6.9 5-11.9 11.3-11.9 c4.6 0 7.3 3.3 7.5 3.6h0.1v-2.9h5V33.1z M60.7 14.7c-4.4 0-6.7 3.8-6.7 7.2c0 3.8 2.8 7 6.7 7c3.7 0 6.6-2.9 6.6-7.1 C67.3 17.1 64 14.7 60.7 14.7z" class="style2"/></g><path d="M90.4 26.1c-1.1 1.6-3 2.8-5.2 2.8c-3.4 0-6.6-2.8-6.6-7c0-4.7 3.8-7.1 6.6-7.1c2.2 0 4.3 1.3 5.5 3.3 l5.7-0.6c-1.8-4.6-6.2-7.6-11.2-7.6c-6.5 0-12 5.3-12 12.1c0 6.5 5.3 12 12 12c4.8 0 9.2-2.7 11.1-7.3L90.4 26.1z" class="style2"/><g><g><path d="M142.6 11.9h-0.4v-0.8h0.4V9.9h0.9v1.2h0.5v0.8h-0.5v2.9h-0.9V11.9z" class="style2"/><path d="M144.4 11.1h0.8v0.3h0c0.1-0.1 0.3-0.4 1-0.4c0.2 0 0.7 0 1.1 0.6c0.4-0.6 0.9-0.6 1.2-0.6 c0.7 0 1.1 0.4 1.2 0.6c0.1 0.2 0.3 0.6 0.3 1.1v2.2h-0.9v-2.1c0-0.2 0-1-0.7-1c-0.2 0-0.5 0.1-0.6 0.4c-0.1 0.2-0.1 0.5-0.1 0.8 v1.9h-0.9v-2.1c0-0.5-0.2-1-0.7-1c-0.7 0-0.7 0.8-0.7 1.2v1.9h-0.9V11.1z" class="style2"/></g></g><g><path d="M104.1 16.7l8.1-0.9c-1-0.7-2.2-1.1-3.5-1.1C107.3 14.7 105.5 15.4 104.1 16.7z" class="style3"/><path d="M108.8 28.9c1.5 0 2.8-0.5 3.9-1.3l-8.5-0.6C105.4 28.2 107 28.9 108.8 28.9z" class="style3"/><path d="M108.8 14.7c1.2 0 2.4 0.4 3.5 1.1l6.5-0.7c-2.2-3.3-5.9-5.4-10-5.4c-5 0-9.5 3.1-11.2 7.7l6.6-0.7 C105.5 15.4 107.3 14.7 108.8 14.7z" class="style2"/><path d="M108.8 28.9c-1.7 0-3.4-0.7-4.6-2l-6.5-0.5c1.8 4.3 6.1 7.4 11.1 7.4c4.2 0 8.2-2.1 10.3-5.8l-6.5-0.5 C111.6 28.4 110.3 28.9 108.8 28.9z" class="style2"/><polygon points="121.6,33.1 127,33.1 127,28.7 121.6,28.3" class="style2"/><polygon points="136.2,33.1 141.7,33.1 141.7,29.8 136.2,29.4" class="style2"/><path d="M132.8 9.8c-3.4 0-5.3 1.9-6.2 2.7v-2h-5v4.3l17.9-2C137.7 10.6 134.7 9.8 132.8 9.8z" class="style2"/><path d="M118.7 15.1l-6.5 0.7c1.8 1.2 3.1 3.4 3.1 6c0 2.2-1 4.4-2.7 5.7l6.5 0.5c1-1.8 1.6-3.9 1.6-6.3 C120.7 19.3 120 17 118.7 15.1z" class="style4"/><path d="M102.1 21.8c0-2.2 0.8-3.9 2-5.1l-6.6 0.7c-0.5 1.3-0.8 2.8-0.8 4.4c0 1.6 0.3 3.2 0.9 4.6l6.5 0.5 C102.9 25.7 102.1 24 102.1 21.8z" class="style4"/><path d="M139.6 12.9C139.6 12.9 139.5 12.9 139.6 12.9l-18 1.9v13.4l5.4 0.4v-6.3c0-1.9 0-4.3 1-5.7 c1-1.5 2.7-2 3.7-2c4.6 0 4.6 5.4 4.6 7.2v7.4l5.4 0.4v-8.9C141.7 19.2 141.7 15.4 139.6 12.9z" class="style4"/></g></g></svg>