<svg xmlns="http://www.w3.org/2000/svg" viewBox="0 0 150 55"><style>.style0{fill:	none;}.style1{fill:	#C4D600;}.style2{fill:	#929288;}.style3{fill:	#ADACA4;}</style><g><g><path d="M69.3 1.9c-1.9 0-3.5 1.6-3.5 3.5c0 1.9 1.6 3.5 3.5 3.5c1.9 0 3.5-1.6 3.5-3.5C72.9 3.5 71.3 1.9 69.3 1.9z M69.3 7.9c-1.4 0-2.5-1.1-2.5-2.5C66.9 4.1 68 3 69.3 3c1.4 0 2.5 1.1 2.5 2.5C71.8 6.8 70.7 7.9 69.3 7.9z" class="style0"/><path d="M85.4 17.9c-1.4 0-2.7 0.6-3.5 1.5c-0.9 0.9-1.4 2.2-1.4 3.6c0 1.4 0.5 2.6 1.4 3.5c0.9 0.9 2.1 1.5 3.5 1.5 c3.1 0 4.9-2.5 4.9-5v0C90.4 20.6 88.7 17.9 85.4 17.9z" class="style0"/><path d="M127.5 17.4c-3.1 0-4.3 2.2-4.4 3.1h8.8C131.8 19.6 130.6 17.4 127.5 17.4z" class="style0"/><rect x="66.5" y="13.1" width="5.9" height="19.7" class="style1"/><path d="M86.7 12.4c-3 0-5 1.3-6.2 2.8v-2.2h-5.5v24.3h5.9v-4.6V31c0.7 0.7 2.4 2.4 5.9 2.4 c5.6 0 9.6-4.6 9.6-10.3C96.3 18.5 93.6 12.4 86.7 12.4z M90.4 22.9c0 2.5-1.8 5-4.9 5c-1.4 0-2.6-0.6-3.5-1.5 c-0.9-0.9-1.4-2.1-1.4-3.5c0-1.4 0.5-2.7 1.4-3.6c0.9-0.9 2.1-1.5 3.5-1.5C88.7 17.9 90.4 20.6 90.4 22.9L90.4 22.9z" class="style1"/><path d="M108.7 12.4c-2.1 0-4.1 0.7-5.1 2.5v-2.5V6.5h-5.9v26.3h5.9V21.8c0-0.5 0-1.5 0.4-2.3 c0.4-0.9 1.2-1.6 2.9-1.6c1.3 0 2.1 0.5 2.6 1.2c0.5 0.7 0.6 1.8 0.6 2.9v10.7h5.9v-11c0-2.5-0.3-4.9-1.4-6.6 C113.5 13.5 111.7 12.4 108.7 12.4z" class="style1"/><path d="M127.5 12.4c-6 0-10.3 5.1-10.3 10.6c0 5.9 4.8 10.4 10.4 10.4c2 0 4-0.6 5.6-1.8c1.7-1.1 3.1-2.8 4-5h-6 c-0.7 1-1.7 1.8-3.6 1.8c-2.3 0-4.3-1.4-4.5-3.5h14.7c0.5-3.6-0.3-6.8-2.8-9.4C133.1 13.6 130.5 12.4 127.5 12.4z M123.1 20.5 c0.1-0.9 1.3-3.1 4.4-3.1c3 0 4.3 2.2 4.4 3.1H123.1z" class="style1"/><path d="M144.9 15.3v-2.2h-5.5v19.7h5.9V22.2c0-2.8 1.4-3.9 4.4-3.9h0.2v-5.9C146.5 12.4 145.5 14.2 144.9 15.3z" class="style1"/><path d="M69.3 0.8c-2.5 0-4.6 2.1-4.6 4.6c0 2.5 2.1 4.6 4.6 4.6c2.5 0 4.6-2.1 4.6-4.6 C73.9 2.9 71.9 0.8 69.3 0.8z M69.3 9c-1.9 0-3.5-1.6-3.5-3.5c0-1.9 1.6-3.5 3.5-3.5c1.9 0 3.5 1.6 3.5 3.5 C72.9 7.4 71.3 9 69.3 9z" class="style1"/><circle cx="69.3" cy="5.4" r="2.5" class="style2"/><path d="M59.1 25.3c-0.6 1.2-1.8 2.6-4.3 2.6c-2.8 0-4.7-2.1-4.7-5c0-1.4 0.5-2.7 1.3-3.6c0.9-0.9 2-1.5 3.4-1.4 c2.4 0 3.6 1.4 4.3 2.8h6c-1-4.8-5.2-8.3-10.4-8.3c-3.4 0-6.3 1.5-8.2 3.9c0 0 0 0 0 0c-1.4 1.8-2.3 4.1-2.3 6.5 c0 3 1.2 5.6 3.2 7.5l0 0c1.9 1.9 4.5 3 7.4 3c5.3 0 9.3-3.7 10.3-8.1H59.1z" class="style1"/><path d="M21.4 32.8V6.5h-5.9v8.2c-0.6-0.6-2.3-2.3-5.8-2.3c-5 0-9.8 3.8-9.8 10.5c0 5.9 3.9 10.5 9.9 10.5 c4 0 5.4-2 6-2.8v2.1H21.4z M14.5 26.4c-0.9 0.9-2.2 1.5-3.7 1.5c-2.8 0-4.9-2-4.9-5v0c0-2.3 1.6-4.9 5-4.9c1.4 0 2.6 0.5 3.5 1.4 c0.9 0.9 1.5 2.1 1.5 3.5C15.9 24.2 15.4 25.5 14.5 26.4z" class="style1"/><path d="M40.3 15.5c-1.8-2-4.4-3.1-7.5-3.1c-3.4 0-6.3 1.7-8.1 4.1l0 0c-1.4 1.8-2.2 4-2.2 6.4 c0 3 1.2 5.6 3.2 7.5l0 0c0.1 0.1 0.2 0.2 0.3 0.3l0 0c1.9 1.7 4.3 2.7 7 2.7c2 0 4-0.6 5.6-1.8c1.7-1.1 3.1-2.8 4-5h-6 c-0.7 1-1.7 1.8-3.6 1.8c-2.3 0-4.3-1.4-4.5-3.5H43C43.5 21.3 42.8 18.1 40.3 15.5z M28.5 20.4c0.1-0.9 1.3-3.1 4.4-3.1 c3.1 0 4.3 2.2 4.4 3.1H28.5z" class="style1"/></g><g><g><path d="M18.2 43.9h-1.1v-1.1h1.1V43.9z M18.1 51.3h-1V45h1V51.3z" class="style3"/><path d="M20.1 51.3v-8.5h1v8.5H20.1z" class="style3"/><path d="M23.1 51.3v-8.5h1v8.5H23.1z" class="style3"/><path d="M30 51.3v-1.3h0c-0.3 0.8-1.1 1.4-1.9 1.4c-0.6 0-1.2-0.2-1.6-0.7c-0.4-0.5-0.5-1.2-0.5-1.9V45h1v3.8 c0 0.4 0 0.8 0.2 1.2c0.2 0.3 0.6 0.6 1 0.6c0.5 0 1-0.2 1.3-0.6c0.4-0.5 0.5-1 0.5-1.6V45h1v6.3H30z" class="style3"/><path d="M33.5 45v1.2h0c0.3-0.8 1-1.4 1.9-1.4c0.9 0 1.6 0.6 1.8 1.5c0.3-0.9 1.1-1.5 2-1.5 c0.6 0 1.3 0.4 1.6 0.9c0.3 0.5 0.3 1.2 0.3 1.8v3.8h-1v-3.8c0-0.4 0-0.9-0.2-1.3c-0.2-0.4-0.6-0.7-1.1-0.7 c-0.5 0-0.9 0.3-1.2 0.7c-0.4 0.5-0.3 1-0.3 1.6v3.4h-1v-4c0-0.3 0-0.8-0.2-1.1c-0.2-0.4-0.6-0.6-1.1-0.6c-0.4 0-0.9 0.3-1.1 0.6 c-0.3 0.4-0.4 0.9-0.4 1.4v3.6h-1V45H33.5z" class="style3"/><path d="M43.9 43.9h-1.1v-1.1h1.1V43.9z M43.9 51.3h-1V45h1V51.3z" class="style3"/><path d="M46.7 46.2L46.7 46.2c0.4-0.8 1.1-1.3 2-1.3c0.8 0 1.4 0.3 1.8 1c0.3 0.5 0.3 1.4 0.3 2v3.5h-1v-3.9 c0-0.4 0-0.8-0.2-1.2c-0.2-0.4-0.7-0.6-1.1-0.6c-0.5 0-1 0.2-1.3 0.6c-0.4 0.5-0.5 1.1-0.5 1.7v3.3h-1V45h0.9V46.2z" class="style3"/><path d="M56.7 47.4v-0.3c0-1.1-0.5-1.5-1.6-1.5c-0.8 0-1.5 0.2-1.7 1.1l-0.9-0.1c0.2-1.3 1.6-1.7 2.7-1.7 c0.7 0 1.5 0.1 1.9 0.6c0.5 0.6 0.5 1.4 0.5 2.1V50c0 0.5 0 0.9 0.1 1.3h-1l-0.1-1.2c-0.4 0.9-1.2 1.3-2.2 1.3 c-1.2 0-2.2-0.7-2.2-1.9c0-0.8 0.5-1.4 1.2-1.7c0.7-0.3 1.6-0.4 2.4-0.4H56.7z M56.7 48.2h-0.8c-1 0-2.6 0.1-2.6 1.4 c0 0.8 0.7 1.1 1.4 1.1c1.2 0 2-1 2-2.1V48.2z" class="style3"/><path d="M62.1 51.4l-0.9 0.1c-1.4 0-1.8-0.8-1.8-2.1v-3.6h-1.1V45h1.1v-1.6l1-0.1V45h1.4v0.8h-1.4v3.8 c0 0.7 0.2 1.1 1 1.1l0.7-0.1V51.4z" class="style3"/><path d="M68.3 49.6c-0.4 1.2-1.5 1.8-2.7 1.8c-1.9 0-2.9-1.5-2.9-3.3c0-1.7 1-3.3 2.9-3.3c2 0 2.8 1.6 2.8 3.4 h-4.6c0 0.5 0 1 0.3 1.4c0.3 0.6 1 1 1.6 1c0.8 0 1.4-0.5 1.7-1.2L68.3 49.6z M67.3 47.5c0-1-0.6-1.9-1.7-1.9 c-1.1 0-1.7 0.9-1.8 1.9H67.3z" class="style3"/><path d="M73.1 48.1c0-1.7 1-3.3 2.9-3.3c1.8 0 2.8 1.6 2.8 3.3c0 1.8-1 3.3-2.9 3.3C74 51.5 73.1 49.8 73.1 48.1z M77.4 49.7c0.3-0.5 0.3-1.1 0.3-1.6c0-0.6-0.1-1.2-0.4-1.7C77 46 76.5 45.7 76 45.7c-0.6 0-1.2 0.3-1.4 0.9 c-0.2 0.5-0.3 1.1-0.3 1.6c0 0.6 0.1 1.2 0.4 1.7c0.3 0.5 0.8 0.8 1.4 0.8C76.6 50.7 77.1 50.3 77.4 49.7z" class="style3"/><path d="M81.3 53.4h-1V45h0.9v1.2h0c0.3-0.8 1-1.4 1.9-1.4c1.8 0 2.5 1.7 2.5 3.3c0 0.7-0.1 1.5-0.5 2.1 c-0.4 0.7-1.1 1.2-2 1.2c-0.9 0-1.4-0.4-1.9-1.1V53.4z M81.3 48.9c0 0.9 0.8 1.8 1.7 1.8c0.5 0 1-0.3 1.3-0.8 c0.3-0.5 0.3-1.1 0.3-1.7c0-1-0.3-2.4-1.6-2.4c-0.9 0-1.5 0.8-1.7 1.5V48.9z" class="style3"/><path d="M88 53.4h-1V45h0.9v1.2h0c0.3-0.8 1-1.4 1.9-1.4c1.8 0 2.5 1.7 2.5 3.3c0 0.7-0.1 1.5-0.5 2.1 c-0.4 0.7-1.1 1.2-2 1.2c-0.9 0-1.5-0.4-1.9-1.1V53.4z M88 48.9c0 0.9 0.8 1.8 1.7 1.8c0.5 0 1-0.3 1.3-0.8 c0.3-0.5 0.3-1.1 0.3-1.7c0-1-0.3-2.4-1.6-2.4c-0.9 0-1.5 0.8-1.7 1.5V48.9z" class="style3"/><path d="M93.2 48.1c0-1.7 1-3.3 2.9-3.3c1.8 0 2.8 1.6 2.8 3.3c0 1.8-1 3.3-2.9 3.3 C94.1 51.5 93.2 49.8 93.2 48.1z M97.5 49.7c0.3-0.5 0.3-1.1 0.3-1.6c0-0.6-0.1-1.2-0.4-1.7c-0.3-0.5-0.8-0.7-1.4-0.7 c-0.6 0-1.2 0.3-1.4 0.9c-0.2 0.5-0.3 1.1-0.3 1.6c0 0.6 0.1 1.2 0.4 1.7c0.3 0.5 0.8 0.8 1.4 0.8C96.7 50.7 97.2 50.3 97.5 49.7 z" class="style3"/><path d="M101.2 45v1.5h0c0.3-0.9 0.8-1.6 1.8-1.6l0.4 0v0.9h-0.2c-0.7 0-1.3 0.4-1.6 1c-0.3 0.5-0.3 0.9-0.3 1.4 v3.2h-1V45H101.2z" class="style3"/><path d="M108.4 51.4l-0.9 0.1c-1.4 0-1.8-0.8-1.8-2.1v-3.6h-1.1V45h1.1v-1.6l1-0.1V45h1.4v0.8h-1.4v3.8 c0 0.7 0.2 1.1 1 1.1l0.7-0.1V51.4z" class="style3"/><path d="M113.4 51.3v-1.3h0c-0.3 0.8-1.1 1.4-1.9 1.4c-0.6 0-1.2-0.2-1.6-0.7c-0.4-0.5-0.5-1.2-0.5-1.9V45h1v3.8 c0 0.4 0 0.8 0.2 1.2c0.2 0.3 0.6 0.6 1 0.6c0.5 0 1-0.2 1.3-0.6c0.4-0.5 0.5-1 0.5-1.6V45h1v6.3H113.4z" class="style3"/><path d="M116.9 46.2L116.9 46.2c0.4-0.8 1.1-1.3 2-1.3c0.8 0 1.4 0.3 1.8 1c0.3 0.5 0.3 1.4 0.3 2v3.5h-1v-3.9 c0-0.4 0-0.8-0.2-1.2c-0.2-0.4-0.7-0.6-1.1-0.6c-0.5 0-1 0.2-1.3 0.6c-0.4 0.5-0.5 1.1-0.5 1.7v3.3h-1V45h0.9V46.2z" class="style3"/><path d="M123.9 43.9h-1.1v-1.1h1.1V43.9z M123.8 51.3h-1V45h1V51.3z" class="style3"/><path d="M128.7 51.4l-0.9 0.1c-1.4 0-1.8-0.8-1.8-2.1v-3.6h-1.1V45h1.1v-1.6l1-0.1V45h1.4v0.8h-1.4v3.8 c0 0.7 0.2 1.1 1 1.1l0.7-0.1V51.4z" class="style3"/><path d="M131.6 51.9c-0.2 0.5-0.3 0.8-0.6 1.2c-0.4 0.4-0.7 0.5-1.3 0.5c-0.2 0-0.5-0.1-0.7-0.1v-0.8 c0.2 0 0.4 0.1 0.6 0.1c1 0 1.2-0.8 1.4-1.5l-2.2-6.2h1l1.7 4.7l1.7-4.7h0.8L131.6 51.9z" class="style3"/><path d="M136.4 48.3l-0.4 0c-0.6 0-0.8-0.4-0.8-1v-1.7h-0.5v-0.4h0.5v-0.7l0.5 0v0.8h0.7v0.4h-0.7v1.8 c0 0.3 0.1 0.5 0.5 0.5l0.4 0V48.3z" class="style3"/><path d="M137.3 45.3v0.6h0c0.2-0.4 0.5-0.6 0.9-0.6c0.4 0 0.7 0.3 0.8 0.7c0.2-0.4 0.5-0.7 1-0.7 c0.3 0 0.6 0.2 0.7 0.4c0.1 0.2 0.1 0.6 0.1 0.8v1.8h-0.5v-1.8c0-0.2 0-0.4-0.1-0.6c-0.1-0.2-0.3-0.3-0.5-0.3 c-0.2 0-0.4 0.1-0.6 0.3c-0.2 0.2-0.2 0.5-0.2 0.7v1.6h-0.5v-1.9c0-0.2 0-0.4-0.1-0.5c-0.1-0.2-0.3-0.3-0.5-0.3 c-0.2 0-0.4 0.1-0.5 0.3c-0.2 0.2-0.2 0.4-0.2 0.7v1.7h-0.5v-3H137.3z" class="style3"/></g></g></g></svg>